<svg height="24" viewBox="0 0 24 24" width="24" xmlns="http://www.w3.org/2000/svg"><g fill="none"><path d="m0 0h24v24h-24z"/><path d="m2.06773 5.48201 8.87577 8.87579c.5491875.5491875 1.4182969.5835117 2.0073922.1029727l.1139078-.1029727 8.8692-8.86919c.0287333.10882667.0484889.22127556.0584667.33652296l.0075333.17486704v12c0 1.0543909-.81585 1.9181678-1.8507339 1.9945144l-.1492661.0054856h-16c-1.05436227 0-1.91816517-.81585-1.99451427-1.8507339l-.00548573-.1492661v-12c0-.11942667.01046667-.23640889.03053481-.35007852zm17.93227-1.48201c.1210667 0 .2396.01075111.3547111.03135259l.1699889.03817741-8.5205 8.52047-8.52229-8.52224c.11016-.02946667.22406667-.04976.34085481-.06001481l.17723519-.00774519z" fill="#09244b"/></g></svg>